<svg xmlns="http://www.w3.org/2000/svg" version="1.1" xmlns:xlink="http://www.w3.org/1999/xlink" xmlns:svgjs="http://svgjs.com/svgjs" width="500" height="500" preserveAspectRatio="none" viewBox="0 0 500 500">
    <g mask="url(&quot;#SvgjsMask1014&quot;)" fill="none">
        <path d="M250 507.86C319.04 508.96 387.5 485.11 435.68 435.68 483.31 386.82 508.57 317.85 501.31 250 494.64 187.65 446.15 142.42 399.78 100.22 356.37 60.73 308.65 22.78 250 21.31 190.12 19.79 136.77 52.13 92.48 92.48 45.53 135.23 3.09 186.64-1.09 250-5.51 316.88 23.42 381.78 70.19 429.81 117.58 478.47 182.09 506.76 250 507.86" fill="rgba(72, 175, 187, 1)"></path>
        <path d="M250 367.21C281.38 367.71 312.5 356.87 334.4 334.4 356.05 312.19 367.53 280.84 364.23 250 361.2 221.66 339.16 201.1 318.08 181.92 298.35 163.97 276.66 146.72 250 146.05 222.78 145.36 198.53 160.06 178.4 178.4 157.06 197.83 137.77 221.2 135.87 250 133.86 280.4 147.01 309.9 168.27 331.73 189.81 353.85 219.13 366.71 250 367.21" fill="rgba(72, 175, 187, 1)"></path>
    </g>
    <defs>
        <mask id="SvgjsMask1014">
            <rect width="500" height="500" fill="#ffffff"></rect>
        </mask>
    </defs>
</svg>