<svg xmlns="http://www.w3.org/2000/svg" version="1.1" xmlns:xlink="http://www.w3.org/1999/xlink" xmlns:svgjs="http://svgjs.com/svgjs" width="1440" height="560" preserveAspectRatio="none" viewBox="0 0 1440 560">
    <g mask="url(&quot;#SvgjsMask1223&quot;)" fill="none">
        <rect width="1440" height="560" x="0" y="0" fill="url(#SvgjsLinearGradient1224)"></rect>
        <path d="M1440 0L879.91 0L1440 134.07z" fill="rgba(255, 255, 255, .1)"></path>
        <path d="M879.91 0L1440 134.07L1440 334.53999999999996L700.0699999999999 0z" fill="rgba(255, 255, 255, .075)"></path>
        <path d="M700.0699999999999 0L1440 334.53999999999996L1440 426.73999999999995L545.3499999999999 0z" fill="rgba(255, 255, 255, .05)"></path>
        <path d="M545.3499999999999 0L1440 426.73999999999995L1440 470.81999999999994L168.45999999999992 0z" fill="rgba(255, 255, 255, .025)"></path>
        <path d="M0 560L481.35 560L0 472.57z" fill="rgba(0, 0, 0, .1)"></path>
        <path d="M0 472.57L481.35 560L585.78 560L0 330.56z" fill="rgba(0, 0, 0, .075)"></path>
        <path d="M0 330.56L585.78 560L828.71 560L0 243.85000000000002z" fill="rgba(0, 0, 0, .05)"></path>
        <path d="M0 243.85000000000002L828.71 560L1143.6 560L0 154.00000000000003z" fill="rgba(0, 0, 0, .025)"></path>
    </g>
    <defs>
        <mask id="SvgjsMask1223">
            <rect width="1440" height="560" fill="#ffffff"></rect>
        </mask>
        <linearGradient x1="15.28%" y1="-39.29%" x2="84.72%" y2="139.29%" gradientUnits="userSpaceOnUse" id="SvgjsLinearGradient1224">
            <stop stop-color="#0e2a47" offset="0"></stop>
            <stop stop-color="rgba(59, 161, 173, 1)" offset="1"></stop>
        </linearGradient>
    </defs>
</svg>