<svg width="189" height="40" viewBox="0 0 189 40" fill="none" xmlns="http://www.w3.org/2000/svg">
<path d="M9.44 32.36C7.92 32.36 6.4 32.3067 4.88 32.2C3.38667 32.12 1.82667 31.9067 0.2 31.56V4.68C1.48 4.44 2.88 4.26667 4.4 4.16C5.92 4.02667 7.33333 3.96 8.64 3.96C10.4 3.96 12.0133 4.09333 13.48 4.36C14.9733 4.6 16.2533 5.02667 17.32 5.64C18.3867 6.25333 19.2133 7.06667 19.8 8.08C20.4133 9.06666 20.72 10.2933 20.72 11.76C20.72 13.9733 19.6533 15.72 17.52 17C19.28 17.6667 20.48 18.5733 21.12 19.72C21.76 20.8667 22.08 22.16 22.08 23.6C22.08 26.5067 21.0133 28.6933 18.88 30.16C16.7733 31.6267 13.6267 32.36 9.44 32.36ZM6.28 19.92V27.08C6.73333 27.1333 7.22667 27.1733 7.76 27.2C8.29333 27.2267 8.88 27.24 9.52 27.24C11.3867 27.24 12.8933 26.9733 14.04 26.44C15.1867 25.9067 15.76 24.92 15.76 23.48C15.76 22.2 15.28 21.2933 14.32 20.76C13.36 20.2 11.9867 19.92 10.2 19.92H6.28ZM6.28 15.16H9.32C11.24 15.16 12.6133 14.92 13.44 14.44C14.2667 13.9333 14.68 13.1333 14.68 12.04C14.68 10.92 14.2533 10.1333 13.4 9.68C12.5467 9.22667 11.2933 9 9.64 9C9.10667 9 8.53333 9.01333 7.92 9.04C7.30667 9.04 6.76 9.06667 6.28 9.12V15.16ZM25.675 21.64C25.675 19.7733 25.955 18.1467 26.515 16.76C27.1017 15.3467 27.8617 14.1733 28.795 13.24C29.7283 12.3067 30.795 11.6 31.995 11.12C33.2217 10.64 34.475 10.4 35.755 10.4C38.7417 10.4 41.1017 11.32 42.835 13.16C44.5683 14.9733 45.435 17.6533 45.435 21.2C45.435 21.5467 45.4217 21.9333 45.395 22.36C45.3683 22.76 45.3417 23.12 45.315 23.44H31.795C31.9283 24.6667 32.5017 25.64 33.515 26.36C34.5283 27.08 35.8883 27.44 37.595 27.44C38.6883 27.44 39.755 27.3467 40.795 27.16C41.8617 26.9467 42.7283 26.6933 43.395 26.4L44.195 31.24C43.875 31.4 43.4483 31.56 42.915 31.72C42.3817 31.88 41.7817 32.0133 41.115 32.12C40.475 32.2533 39.7817 32.36 39.035 32.44C38.2883 32.52 37.5417 32.56 36.795 32.56C34.9017 32.56 33.2483 32.28 31.835 31.72C30.4483 31.16 29.2883 30.4 28.355 29.44C27.4483 28.4533 26.7683 27.2933 26.315 25.96C25.8883 24.6267 25.675 23.1867 25.675 21.64ZM39.675 19.36C39.6483 18.8533 39.555 18.36 39.395 17.88C39.2617 17.4 39.035 16.9733 38.715 16.6C38.4217 16.2267 38.035 15.92 37.555 15.68C37.1017 15.44 36.5283 15.32 35.835 15.32C35.1683 15.32 34.595 15.44 34.115 15.68C33.635 15.8933 33.235 16.1867 32.915 16.56C32.595 16.9333 32.3417 17.3733 32.155 17.88C31.995 18.36 31.875 18.8533 31.795 19.36H39.675ZM62.7144 16.24C62.181 16.1067 61.5544 15.9733 60.8344 15.84C60.1144 15.68 59.341 15.6 58.5144 15.6C58.141 15.6 57.6877 15.64 57.1544 15.72C56.6477 15.7733 56.261 15.84 55.9944 15.92V32H50.0344V12.08C51.101 11.7067 52.3544 11.36 53.7944 11.04C55.261 10.6933 56.8877 10.52 58.6744 10.52C58.9944 10.52 59.381 10.5467 59.8344 10.6C60.2877 10.6267 60.741 10.68 61.1944 10.76C61.6477 10.8133 62.101 10.8933 62.5544 11C63.0077 11.08 63.3944 11.1867 63.7144 11.32L62.7144 16.24ZM80.3894 21.32C80.3894 17.48 78.976 15.56 76.1494 15.56C75.536 15.56 74.9227 15.64 74.3094 15.8C73.7227 15.96 73.2427 16.16 72.8694 16.4V27.24C73.1627 27.2933 73.536 27.3467 73.9894 27.4C74.4427 27.4267 74.936 27.44 75.4694 27.44C77.096 27.44 78.3227 26.88 79.1494 25.76C79.976 24.64 80.3894 23.16 80.3894 21.32ZM86.4694 21.48C86.4694 23.16 86.216 24.68 85.7094 26.04C85.2294 27.4 84.5227 28.56 83.5894 29.52C82.656 30.48 81.5094 31.2267 80.1494 31.76C78.7894 32.2667 77.2427 32.52 75.5094 32.52C74.7894 32.52 74.0294 32.48 73.2294 32.4C72.456 32.3467 71.6827 32.2667 70.9094 32.16C70.1627 32.0533 69.4427 31.9333 68.7494 31.8C68.056 31.64 67.4427 31.48 66.9094 31.32V1.92L72.8694 0.959999V11.44C73.536 11.1467 74.2294 10.92 74.9494 10.76C75.6694 10.6 76.4427 10.52 77.2694 10.52C78.7627 10.52 80.0827 10.7867 81.2294 11.32C82.376 11.8267 83.336 12.56 84.1094 13.52C84.8827 14.48 85.4694 15.64 85.8694 17C86.2694 18.3333 86.4694 19.8267 86.4694 21.48ZM99.09 27.84C99.6767 27.84 100.237 27.8267 100.77 27.8C101.303 27.7733 101.73 27.7333 102.05 27.68V23.16C101.81 23.1067 101.45 23.0533 100.97 23C100.49 22.9467 100.05 22.92 99.65 22.92C99.09 22.92 98.5567 22.96 98.05 23.04C97.57 23.0933 97.1433 23.2133 96.77 23.4C96.3967 23.5867 96.1033 23.84 95.89 24.16C95.6767 24.48 95.57 24.88 95.57 25.36C95.57 26.2933 95.8767 26.9467 96.49 27.32C97.13 27.6667 97.9967 27.84 99.09 27.84ZM98.61 10.4C100.37 10.4 101.837 10.6 103.01 11C104.183 11.4 105.117 11.9733 105.81 12.72C106.53 13.4667 107.037 14.3733 107.33 15.44C107.623 16.5067 107.77 17.6933 107.77 19V31.4C106.917 31.5867 105.73 31.8 104.21 32.04C102.69 32.3067 100.85 32.44 98.69 32.44C97.33 32.44 96.09 32.32 94.97 32.08C93.8767 31.84 92.93 31.4533 92.13 30.92C91.33 30.36 90.7167 29.64 90.29 28.76C89.8633 27.88 89.65 26.8 89.65 25.52C89.65 24.2933 89.89 23.2533 90.37 22.4C90.8767 21.5467 91.5433 20.8667 92.37 20.36C93.1967 19.8533 94.1433 19.4933 95.21 19.28C96.2767 19.04 97.3833 18.92 98.53 18.92C99.3033 18.92 99.9833 18.96 100.57 19.04C101.183 19.0933 101.677 19.1733 102.05 19.28V18.72C102.05 17.7067 101.743 16.8933 101.13 16.28C100.517 15.6667 99.45 15.36 97.93 15.36C96.9167 15.36 95.9167 15.44 94.93 15.6C93.9433 15.7333 93.09 15.9333 92.37 16.2L91.61 11.4C91.9567 11.2933 92.3833 11.1867 92.89 11.08C93.4233 10.9467 93.9967 10.84 94.61 10.76C95.2233 10.6533 95.8633 10.5733 96.53 10.52C97.2233 10.44 97.9167 10.4 98.61 10.4Z" fill="#FEFFFF"/>
<path d="M118.239 20.8C118.239 24.1333 119.586 25.8 122.279 25.8C122.893 25.8 123.466 25.72 123.999 25.56C124.533 25.4 124.986 25.2133 125.359 25V15.48C125.066 15.4267 124.719 15.3867 124.319 15.36C123.919 15.3067 123.453 15.28 122.919 15.28C121.346 15.28 120.173 15.8 119.399 16.84C118.626 17.88 118.239 19.2 118.239 20.8ZM131.319 29.36C131.319 32.8 130.439 35.3467 128.679 37C126.946 38.68 124.253 39.52 120.599 39.52C119.319 39.52 118.039 39.4 116.759 39.16C115.479 38.9467 114.293 38.6533 113.199 38.28L114.239 33.28C115.173 33.6533 116.146 33.9467 117.159 34.16C118.199 34.3733 119.373 34.48 120.679 34.48C122.386 34.48 123.586 34.1067 124.279 33.36C124.999 32.6133 125.359 31.6533 125.359 30.48V29.72C124.719 30.0133 124.053 30.24 123.359 30.4C122.693 30.5333 121.959 30.6 121.159 30.6C118.253 30.6 116.026 29.7467 114.479 28.04C112.933 26.3067 112.159 23.8933 112.159 20.8C112.159 19.2533 112.399 17.8533 112.879 16.6C113.359 15.32 114.053 14.2267 114.959 13.32C115.893 12.4133 117.026 11.72 118.359 11.24C119.693 10.7333 121.199 10.48 122.879 10.48C123.599 10.48 124.333 10.52 125.079 10.6C125.853 10.6533 126.613 10.7333 127.359 10.84C128.106 10.9467 128.813 11.08 129.479 11.24C130.173 11.3733 130.786 11.52 131.319 11.68V29.36ZM142.869 32H136.909V10.96H142.869V32ZM143.429 4.88C143.429 5.97333 143.069 6.84 142.349 7.48C141.656 8.09333 140.829 8.4 139.869 8.4C138.909 8.4 138.069 8.09333 137.349 7.48C136.656 6.84 136.309 5.97333 136.309 4.88C136.309 3.78667 136.656 2.93333 137.349 2.32C138.069 1.68 138.909 1.36 139.869 1.36C140.829 1.36 141.656 1.68 142.349 2.32C143.069 2.93333 143.429 3.78667 143.429 4.88ZM153.567 32C152.207 29.3333 150.82 26.2133 149.407 22.64C148.02 19.0667 146.7 15.1733 145.447 10.96H151.767C152.034 12 152.34 13.1333 152.687 14.36C153.06 15.56 153.434 16.7867 153.807 18.04C154.207 19.2667 154.594 20.4667 154.967 21.64C155.367 22.8133 155.754 23.88 156.127 24.84C156.474 23.88 156.847 22.8133 157.247 21.64C157.647 20.4667 158.034 19.2667 158.407 18.04C158.807 16.7867 159.18 15.56 159.527 14.36C159.9 13.1333 160.22 12 160.487 10.96H166.647C165.394 15.1733 164.06 19.0667 162.647 22.64C161.26 26.2133 159.887 29.3333 158.527 32H153.567ZM168.292 21.64C168.292 19.7733 168.572 18.1467 169.132 16.76C169.719 15.3467 170.479 14.1733 171.412 13.24C172.346 12.3067 173.412 11.6 174.612 11.12C175.839 10.64 177.092 10.4 178.372 10.4C181.359 10.4 183.719 11.32 185.452 13.16C187.186 14.9733 188.052 17.6533 188.052 21.2C188.052 21.5467 188.039 21.9333 188.012 22.36C187.986 22.76 187.959 23.12 187.932 23.44H174.412C174.546 24.6667 175.119 25.64 176.132 26.36C177.146 27.08 178.506 27.44 180.212 27.44C181.306 27.44 182.372 27.3467 183.412 27.16C184.479 26.9467 185.346 26.6933 186.012 26.4L186.812 31.24C186.492 31.4 186.066 31.56 185.532 31.72C184.999 31.88 184.399 32.0133 183.732 32.12C183.092 32.2533 182.399 32.36 181.652 32.44C180.906 32.52 180.159 32.56 179.412 32.56C177.519 32.56 175.866 32.28 174.452 31.72C173.066 31.16 171.906 30.4 170.972 29.44C170.066 28.4533 169.386 27.2933 168.932 25.96C168.506 24.6267 168.292 23.1867 168.292 21.64ZM182.292 19.36C182.266 18.8533 182.172 18.36 182.012 17.88C181.879 17.4 181.652 16.9733 181.332 16.6C181.039 16.2267 180.652 15.92 180.172 15.68C179.719 15.44 179.146 15.32 178.452 15.32C177.786 15.32 177.212 15.44 176.732 15.68C176.252 15.8933 175.852 16.1867 175.532 16.56C175.212 16.9333 174.959 17.3733 174.772 17.88C174.612 18.36 174.492 18.8533 174.412 19.36H182.292Z" fill="#EB2678"/>
</svg>
